<svg width="18" height="18" viewBox="0 0 18 18" fill="none" xmlns="http://www.w3.org/2000/svg">
<path fill-rule="evenodd" clip-rule="evenodd" d="M10.6628 3.1122C8.62385 1.07328 5.31809 1.07328 3.27916 3.1122C1.24024 5.15113 1.24024 8.45689 3.27916 10.4958C5.28521 12.5019 8.51755 12.5342 10.5632 10.5929C10.5816 10.5697 10.6017 10.5474 10.6233 10.5261C10.6457 10.504 10.6692 10.4836 10.6935 10.4648C12.7016 8.42355 12.6914 5.14084 10.6628 3.1122ZM12.187 11.0433C14.3378 8.4035 14.1833 4.51136 11.7234 2.05154C9.09872 -0.573171 4.84322 -0.573171 2.2185 2.05154C-0.406209 4.67626 -0.406209 8.93176 2.2185 11.5565C4.64955 13.9875 8.47961 14.1669 11.1171 12.0946L16.4661 17.5167C16.757 17.8116 17.2318 17.8148 17.5267 17.5239C17.8216 17.233 17.8248 16.7582 17.5339 16.4633L12.187 11.0433Z" fill="#ffffff"/>
</svg>
